<?xml version="1.0" encoding="UTF-8" standalone="no"?>
<!DOCTYPE svg PUBLIC "-//W3C//DTD SVG 1.1//EN" "http://www.w3.org/Graphics/SVG/1.1/DTD/svg11.dtd">
<svg width="100%" height="100%" viewBox="0 0 8039 3205" version="1.1" xmlns="http://www.w3.org/2000/svg" xmlns:xlink="http://www.w3.org/1999/xlink" xml:space="preserve" xmlns:serif="http://www.serif.com/" style="fill-rule:evenodd;clip-rule:evenodd;stroke-linejoin:round;stroke-miterlimit:2;">
    <g transform="matrix(1,0,0,1,827.731,752.043)">
        <g transform="matrix(4.85651,0,0,4.85651,-1867.25,-3180.01)">
            <g transform="matrix(1,0,0,1,214.047,482.294)">
                <rect x="0" y="17.647" width="423.529" height="423.648" style="fill:rgb(212,22,60);fill-opacity:0;"/>
            </g>
            <g transform="matrix(1,0,0,1,208.347,476.569)">
                <path d="M345.176,60.706L247.059,158.824C238.588,167.294 233.647,178.588 233.647,190.588C233.647,202.588 238.588,213.882 247.059,222.353L345.176,321.176C347.294,323.294 350.118,324 352.941,324C355.765,324 358.588,322.588 360.706,321.176L458.824,223.059C476.471,205.412 476.471,176.471 458.824,158.824L360.706,60.706C356.471,57.176 349.412,57.176 345.176,60.706Z" style="fill:rgb(212,22,60);fill-rule:nonzero;"/>
            </g>
            <g transform="matrix(1,0,0,1,208.347,476.569)">
                <path d="M307.059,370.588C307.059,367.765 305.647,364.941 304.235,362.824L205.412,264.706C187.765,247.059 158.824,247.059 141.176,264.706L43.059,362.824C40.941,364.941 40.235,367.765 40.235,370.588C40.235,373.412 41.647,376.235 43.059,378.353L141.176,476.471C149.647,484.941 160.941,489.882 172.941,489.882C184.941,489.882 196.235,484.941 204.706,476.471L303.529,378.353C305.647,376.235 307.059,373.412 307.059,370.588Z" style="fill:rgb(212,22,60);fill-rule:nonzero;"/>
            </g>
            <g transform="matrix(1,0,0,1,208.347,476.569)">
                <path d="M564.706,264.706C547.059,247.059 518.118,247.059 500.471,264.706L402.353,362.824C400.235,364.941 399.529,367.765 399.529,370.588C399.529,373.412 400.941,376.235 402.353,378.353L500.471,476.471C508.941,484.941 520.235,489.882 532.235,489.882C544.235,489.882 555.529,484.941 564,476.471L662.118,378.353C666.353,374.118 666.353,367.765 662.118,363.529L564.706,264.706Z" style="fill:rgb(212,22,60);fill-rule:nonzero;"/>
            </g>
            <g transform="matrix(1,0,0,1,208.347,476.569)">
                <path d="M360.706,420C356.471,415.765 350.118,415.765 345.882,420L247.059,518.118C229.412,535.765 229.412,564.706 247.059,582.353L345.176,680.471C347.294,682.588 350.118,683.294 352.941,683.294C355.765,683.294 358.588,682.588 360.706,680.471L458.824,582.353C476.471,564.706 476.471,535.765 458.824,518.118L360.706,420Z" style="fill:rgb(212,22,60);fill-rule:nonzero;"/>
            </g>
        </g>
        <g transform="matrix(14.8221,0,0,14.8221,2912.3,1382.93)">
            <path d="M111.953,-84.071C117.506,-84.071 122.353,-83.012 126.494,-80.894C130.682,-78.776 134.094,-75.882 136.729,-72.212C139.365,-68.494 141.341,-64.188 142.659,-59.294C143.976,-54.447 144.635,-49.176 144.635,-43.482L144.635,17.647L120.918,17.647L120.918,-43.482C120.918,-48.094 119.247,-52.047 115.906,-55.341C112.753,-58.635 108.8,-60.282 104.047,-60.282C99.294,-60.282 95.341,-58.635 92.188,-55.341C88.894,-52.047 87.247,-48.094 87.247,-43.482L87.247,17.647L63.529,17.647L63.529,-43.482C63.529,-48.094 61.882,-52.047 58.588,-55.341C56.988,-57.082 55.176,-58.353 53.153,-59.153C51.082,-59.906 48.918,-60.282 46.659,-60.282C41.812,-60.282 37.812,-58.635 34.659,-55.341C31.318,-52.047 29.647,-48.094 29.647,-43.482L29.647,17.647L5.929,17.647L5.929,-81.247L29.647,-81.247L29.647,-72.565C33.506,-75.859 37.529,-78.588 41.718,-80.753C45.953,-82.965 50.259,-84.071 54.635,-84.071C60.565,-84.071 65.435,-82.871 69.247,-80.471C73.059,-78.118 76.494,-74.824 79.553,-70.588C83.082,-74.4 87.694,-77.6 93.388,-80.188C99.035,-82.776 105.224,-84.071 111.953,-84.071ZM177.411,17.647L153.693,17.647L153.693,-6.071L177.411,-6.071L177.411,17.647ZM288.604,-19.976L211.804,-19.976C213.122,-16.918 215.051,-14.212 217.592,-11.859C220.369,-9.082 223.451,-6.988 226.84,-5.576C230.275,-4.212 233.922,-3.529 237.781,-3.529C243.145,-3.529 247.945,-4.776 252.181,-7.271L276.957,2.612C272.204,8.165 266.463,12.494 259.734,15.6C253.004,18.659 245.687,20.188 237.781,20.188C230.487,20.188 223.687,18.847 217.381,16.165C211.028,13.482 205.475,9.765 200.722,5.012C196.016,0.259 192.298,-5.294 189.569,-11.647C186.887,-17.953 185.545,-24.682 185.545,-31.835C185.545,-39.082 186.887,-45.859 189.569,-52.165C192.298,-58.518 196.016,-64.071 200.722,-68.824C205.475,-73.576 211.028,-77.294 217.381,-79.976C223.687,-82.706 230.487,-84.071 237.781,-84.071C245.028,-84.071 251.804,-82.706 258.11,-79.976C264.463,-77.294 270.016,-73.576 274.769,-68.824C279.522,-64.071 283.24,-58.518 285.922,-52.165C288.651,-45.859 290.016,-39.082 290.016,-31.835C290.016,-27.6 289.545,-23.647 288.604,-19.976ZM237.781,-60.282C230.11,-60.282 223.381,-57.529 217.592,-52.024C215.051,-49.482 213.122,-46.706 211.804,-43.694L263.687,-43.694C262.369,-46.706 260.44,-49.482 257.898,-52.024C252.392,-57.529 245.687,-60.282 237.781,-60.282Z" style="fill:white;fill-rule:nonzero;"/>
        </g>
    </g>
</svg>
